<?xml version="1.0" encoding="utf-8"?>
<!-- Generator: Adobe Illustrator 13.0.0, SVG Export Plug-In  -->
<!DOCTYPE svg PUBLIC "-//W3C//DTD SVG 1.1//EN" "http://www.w3.org/Graphics/SVG/1.1/DTD/svg11.dtd" [
	<!ENTITY ns_flows "http://ns.adobe.com/Flows/1.0/">
]>
<svg version="1.1"
	 xmlns="http://www.w3.org/2000/svg" xmlns:xlink="http://www.w3.org/1999/xlink" xmlns:a="http://ns.adobe.com/AdobeSVGViewerExtensions/3.0/"
	 x="0px" y="0px" width="330px" height="134px" viewBox="0 0 330 134" enable-background="new 0 0 330 134" xml:space="preserve">
<defs>
</defs>
<path fill="#702F8A" d="M189.129,18.515h3.516c2.133,0,3.612,1.114,3.612,3.266c0,2.248-1.614,2.824-1.94,2.939v0.039
	c1.018,0.25,2.555,0.845,2.555,3.419c0,2.747-2.055,3.592-4.227,3.592h-3.516V18.515z M190.628,24.239h1.287
	c0.845,0,2.843-0.038,2.843-2.363c0-1.959-1.594-2.113-2.631-2.113h-1.499V24.239z M190.628,30.521h1.729
	c0.748,0,3.016-0.077,3.016-2.498c0-1.633-1.229-2.536-2.844-2.536h-1.901V30.521z"/>
<path fill="#702F8A" d="M203.176,18.515h1.825l4.284,13.255h-1.498l-1.326-4.092h-4.726l-1.287,4.092h-1.499L203.176,18.515z
	 M202.139,26.429h3.919l-1.94-6.551h-0.038L202.139,26.429z"/>
<path fill="#702F8A" d="M212.055,18.515h1.922l5.455,11.2h0.039v-11.2h1.421V31.77h-1.921l-5.456-11.162h-0.038V31.77h-1.422V18.515
	z"/>
<path fill="#702F8A" d="M229.271,31.77c-3.804,0-4.803-3.708-4.803-6.647c0-3.362,0.961-6.82,4.88-6.82
	c3.784,0,4.706,3.458,4.706,6.82c0,3.17-0.902,4.957-1.768,5.494l0.039,0.039l2.729-0.173v1.287H229.271z M229.252,30.521
	c2.901,0,3.17-2.824,3.17-5.417c0-2.401-0.422-5.552-3.073-5.552c-2.805,0-3.247,3.151-3.247,5.552
	C226.102,27.255,226.582,30.521,229.252,30.521z"/>
<path fill="#702F8A" d="M246.066,27.505c0,1.729-0.25,4.476-4.304,4.476c-3.612,0-4.054-2.747-4.054-4.476v-8.991h1.498v8.703
	c0,1.498,0.097,3.515,2.613,3.515c2.747,0,2.747-2.017,2.747-3.515v-8.703h1.499V27.505z"/>
<path fill="#702F8A" d="M250.181,18.515h6.417v1.249h-4.918v4.438h4.688v1.249h-4.688v5.072h5.09v1.249h-6.589V18.515z"/>
<path fill="#702F8A" d="M189.226,47.724h1.499v13.255h-1.499V47.724z"/>
<path fill="#702F8A" d="M195.067,47.724h1.921l5.456,11.2h0.038v-11.2h1.422v13.255h-1.921l-5.456-11.162h-0.038v11.162h-1.422
	V47.724z"/>
<path fill="#702F8A" d="M209.672,48.973h-3.17v-1.249h7.838v1.249h-3.17v12.007h-1.498V48.973z"/>
<path fill="#702F8A" d="M216.916,47.724h6.417v1.249h-4.918v4.438h4.688v1.249h-4.688v5.072h5.091v1.249h-6.59V47.724z"/>
<path fill="#702F8A" d="M226.775,47.724h3.285c0.902,0,4.227,0.115,4.227,3.343c0,2.382-1.461,3.016-2.689,3.323v0.039
	c1.824,0.48,1.997,1.46,2.285,2.92l0.769,3.631h-1.499l-0.652-3.055c-0.404-1.921-0.807-2.843-2.844-2.843h-1.383v5.898h-1.498
	V47.724z M228.273,53.833h0.826c1.806,0,3.688-0.403,3.688-2.613c0-2.248-1.806-2.248-3.4-2.248h-1.114V53.833z"/>
<path fill="#702F8A" d="M238.055,47.724h1.922l5.455,11.2h0.039v-11.2h1.421v13.255h-1.921l-5.456-11.162h-0.038v11.162h-1.422
	V47.724z"/>
<path fill="#702F8A" d="M253.889,47.724h1.824l4.285,13.255h-1.499l-1.325-4.092h-4.727l-1.287,4.092h-1.498L253.889,47.724z
	 M252.852,55.639h3.918l-1.939-6.551h-0.039L252.852,55.639z"/>
<path fill="#702F8A" d="M263.943,48.973h-3.17v-1.249h7.838v1.249h-3.17v12.007h-1.498V48.973z"/>
<path fill="#702F8A" d="M271.284,47.724h1.499v13.255h-1.499V47.724z"/>
<path fill="#702F8A" d="M276.473,54.333c0-3.362,0.922-6.82,4.727-6.82c3.784,0,4.706,3.458,4.706,6.82
	c0,3.343-0.922,6.858-4.706,6.858C277.395,61.191,276.473,57.675,276.473,54.333z M281.199,59.942c2.65,0,3.073-3.247,3.073-5.628
	c0-2.401-0.423-5.552-3.073-5.552c-2.671,0-3.094,3.151-3.094,5.552C278.105,56.695,278.528,59.942,281.199,59.942z"/>
<path fill="#702F8A" d="M289.482,47.724h1.921l5.456,11.2h0.038v-11.2h1.421v13.255h-1.92l-5.457-11.162h-0.037v11.162h-1.422
	V47.724z"/>
<path fill="#702F8A" d="M305.316,47.724h1.824l4.284,13.255h-1.499l-1.324-4.092h-4.727l-1.287,4.092h-1.498L305.316,47.724z
	 M304.278,55.639h3.919l-1.939-6.551h-0.039L304.278,55.639z"/>
<path fill="#702F8A" d="M314.195,47.724h1.498v12.007h4.745v1.249h-6.243V47.724z"/>
<path fill="#702F8A" d="M322.977,47.724h6.417v1.249h-4.918v4.438h4.688v1.249h-4.688v5.072h5.091v1.249h-6.59V47.724z"/>
<path fill="#702F8A" d="M191.896,76.934h1.824l4.284,13.255h-1.499l-1.324-4.092h-4.727l-1.287,4.092h-1.498L191.896,76.934z
	 M190.858,84.849h3.919l-1.939-6.551h-0.039L190.858,84.849z M190.936,72.765h1.69l0.807,2.574h-1.21L190.936,72.765z"/>
<path fill="#702F8A" d="M206.713,76.934h1.498v12.007h4.745v1.248h-6.243V76.934z"/>
<path fill="#702F8A" d="M223.736,85.925c0,1.729-0.25,4.476-4.303,4.476c-3.612,0-4.055-2.747-4.055-4.476v-8.991h1.499v8.702
	c0,1.498,0.097,3.516,2.612,3.516c2.748,0,2.748-2.018,2.748-3.516v-8.702h1.498V85.925z"/>
<path fill="#702F8A" d="M230.387,83.236l-3.766-6.302h1.633l2.959,4.956l2.92-4.956h1.633l-3.746,6.302l4.168,6.953h-1.633
	l-3.342-5.57l-3.362,5.57h-1.633L230.387,83.236z"/>
<path fill="#702F8A" d="M238.785,76.934h6.416v1.249h-4.918v4.438h4.688v1.248h-4.688v5.072h5.092v1.248h-6.59V76.934z"/>
<path fill="#702F8A" d="M248.644,76.934h2.247l3.766,11.276h0.039l3.766-11.276h2.229v13.255h-1.346v-11.66h-0.038l-3.899,11.66
	h-1.479l-3.899-11.66h-0.039v11.66h-1.345V76.934z"/>
<path fill="#702F8A" d="M264.9,76.934h3.516c2.133,0,3.612,1.114,3.612,3.266c0,2.247-1.614,2.824-1.94,2.939v0.038
	c1.018,0.25,2.555,0.846,2.555,3.42c0,2.747-2.055,3.592-4.227,3.592H264.9V76.934z M266.399,82.659h1.287
	c0.845,0,2.843-0.038,2.843-2.362c0-1.96-1.594-2.113-2.631-2.113h-1.499V82.659z M266.399,88.941h1.729
	c0.748,0,3.016-0.077,3.016-2.498c0-1.633-1.229-2.535-2.844-2.535h-1.901V88.941z"/>
<path fill="#702F8A" d="M275.527,83.542c0-3.361,0.922-6.82,4.727-6.82c3.784,0,4.706,3.459,4.706,6.82
	c0,3.343-0.922,6.858-4.706,6.858C276.449,90.401,275.527,86.885,275.527,83.542z M280.254,89.152c2.65,0,3.073-3.246,3.073-5.629
	c0-2.4-0.423-5.552-3.073-5.552c-2.671,0-3.094,3.151-3.094,5.552C277.16,85.906,277.583,89.152,280.254,89.152z"/>
<path fill="#702F8A" d="M296.779,85.925c0,1.729-0.25,4.476-4.304,4.476c-3.612,0-4.054-2.747-4.054-4.476v-8.991h1.498v8.702
	c0,1.498,0.097,3.516,2.613,3.516c2.747,0,2.747-2.018,2.747-3.516v-8.702h1.499V85.925z"/>
<path fill="#702F8A" d="M300.893,76.934h3.285c0.903,0,4.227,0.115,4.227,3.343c0,2.382-1.459,3.016-2.689,3.323v0.038
	c1.825,0.48,1.998,1.461,2.286,2.92l0.769,3.631h-1.498l-0.653-3.055c-0.403-1.92-0.808-2.843-2.843-2.843h-1.384v5.897h-1.499
	V76.934z M302.392,83.042h0.826c1.806,0,3.688-0.402,3.688-2.612c0-2.247-1.807-2.247-3.4-2.247h-1.114V83.042z"/>
<path fill="#702F8A" d="M320.646,89.132c-0.327,0.289-1.748,1.269-3.823,1.269c-4.188,0-5.302-3.438-5.302-7.281
	c0-3.381,1.306-6.397,4.937-6.397c2.633,0,4.266,1.614,4.266,3.823h-1.691c0-1.19-0.652-2.574-2.555-2.574
	c-2.689,0-3.323,2.747-3.323,5.148c0,2.575,0.442,6.032,3.554,6.032c1.345,0,2.209-0.519,2.439-0.73v-4.476h-3.035v-1.249h4.534
	V89.132z"/>
<path fill="#702F8A" d="M2.896,103.341l-2.406,1.359v-1.77l2.777-1.476h1.754v12.026H2.896V103.341z"/>
<path fill="#702F8A" d="M39.214,104.33c0-0.523-0.393-1.382-1.492-1.382c-1.715,0-1.922,2.031-1.922,4.418
	c0.523-0.521,1.25-1.063,2.629-1.063c2.313,0,3.357,1.511,3.357,3.711c0,2.313-1.492,3.672-4.027,3.672
	c-3.729,0-4.287-2.777-4.287-6.133c0-3.728,0.781-6.098,4.438-6.098c2.684,0,3.559,1.604,3.635,2.874H39.214z M37.703,112.291
	c1.324,0,1.754-1.102,1.754-2.351c0-1.192-0.41-2.235-1.754-2.235c-1.361,0-1.828,0.949-1.828,2.254
	C35.875,111.17,36.453,112.291,37.703,112.291z"/>
<path fill="#702F8A" d="M21.964,59.118c-0.844,0-4.223,0-5.488,0.103v17.012c1.373,0.215,3.801,0.321,6.332,0.321
	c7.289,0,11.41-3.423,11.41-8.989C34.218,62.002,29.675,59.118,21.964,59.118 M23.335,30.659c-2.531,0-4.855,0.111-6.859,0.221
	V46.71c1.373,0.105,2.955,0.105,4.852,0.105c8.029,0,11.938-3.319,11.938-8.775C33.265,33.444,30.203,30.659,23.335,30.659
	 M22.492,90.138c-4.227,0-12.142-0.214-22.492-0.214V17.826c6.55-0.319,17.212-0.536,25.976-0.536
	c15.523,0,24.713,6.102,24.713,18.191c0,6.734-4.225,12.829-10.35,15.612v0.32c7.289,1.927,11.508,8.772,11.508,15.938
	C51.847,78.908,43.505,90.138,22.492,90.138"/>
<path fill="#702F8A" d="M76.832,41.557V17.29H60.359v24.439v14.332v22.597c-0.006,4.031-0.006,8.013,0,11.384
	c0,0.031,0,0.065,0,0.097h16.473V41.557z"/>
<path fill="#702F8A" d="M80.822,101.708c0,0,2.654,3.5,8.828,7.927c1.775,1.273,4.635,3.032,6.236,3.978
	c1.279,0.755,2.598,1.503,4.512,2.444c0.588,0.289,1.842,0.579,3.484-0.34c2.406-1.344,13.563-7.344,25.188-19.313
	s20.313-24.853,25.979-38.271c4.621-10.936,7.656-22.69,9.061-34.685c0.318-2.721,0.682-7.421,0.703-8.192
	c0.021-0.771,0.23-2.125-1.877-2.85c-1.869-0.644-15.74-5.253-35.24-8.128S96.58,1.709,83.857,2.369
	c-11.123,0.576-24.824,2.635-30.65,3.617l0.01-1.259c0,0,12.166-2.572,27.166-3.885s35.625-1.188,51.875,1.063
	s26.188,4.5,29.625,5.438c2.064,0.563,3.379,0.914,5.511,1.509c0.988,0.275,1.487,0.558,1.995,1.255
	c0.295,0.405,0.508,1.067,0.508,1.568c0.001,1.219-0.033,3.365-0.048,3.89c-0.032,1.188-0.153,7.403-0.778,12.591
	s-2.313,20.688-9.25,37.563c-1.848,4.498-3.893,9.2-6.361,13.883c-6.797,12.887-16.145,26.011-28.389,37.242
	c-14.375,13.188-20.369,16.062-21.438,16.625c-1.414,0.75-2.229,0.98-3.416,0.418s-5.625-2.835-12.855-7.605
	c-7.229-4.77-12.688-9.604-16.916-14.063c-4.229-4.457-6.418-8.123-7.762-10.509H80.822z"/>
<path fill="#702F8A" d="M10.102,110.37c0-2.294,1.213-2.742,2.051-3.059c-0.856-0.375-1.881-0.914-1.881-2.816
	c0-2.235,1.845-3.039,3.951-3.039c2.238,0,3.953,0.804,3.953,3.116c0,1.863-1.082,2.387-1.863,2.739
	c0.914,0.354,2.031,0.765,2.031,3.059c0,2.535-1.789,3.316-4.121,3.316C11.706,113.686,10.102,112.792,10.102,110.37z
	 M14.222,112.291c1.25,0,1.848-0.859,1.848-2.258c0-1.117-0.543-2.069-1.848-2.069c-1.25,0-1.845,0.952-1.845,2.069
	C12.377,111.431,13.085,112.291,14.222,112.291z M14.222,106.565c1.064,0,1.678-0.688,1.678-1.883c0-1.156-0.559-1.828-1.678-1.828
	c-0.895,0-1.677,0.672-1.677,1.809C12.545,105.876,13.234,106.565,14.222,106.565z"/>
<path fill="#702F8A" d="M24.437,106.751c0.428-0.297,1.1-0.559,2.049-0.559c2.35,0,3.748,1.324,3.748,3.821
	c0,2.667-1.957,3.672-4.25,3.672c-3.355,0-4.084-1.641-4.215-2.888h2.461c0.076,0.578,0.391,1.398,1.734,1.398
	c1.379,0,1.939-0.82,1.939-2.293c0-1.269-0.465-2.313-1.92-2.313c-0.859,0-1.398,0.521-1.547,0.856h-2.164l0.336-6.785h6.674v1.602
	h-4.68L24.437,106.751z"/>
<path fill="#702F8A" d="M89.13,17.29v72.849h29.469c0,0,8.066-7.039,12.859-14.762h-25.85V17.29H89.13z"/>
</svg>
